<?xml version="1.0" standalone="no"?><!DOCTYPE svg PUBLIC "-//W3C//DTD SVG 1.1//EN" "http://www.w3.org/Graphics/SVG/1.1/DTD/svg11.dtd"><svg t="1773123625105" class="icon" viewBox="0 0 1024 1024" version="1.1" xmlns="http://www.w3.org/2000/svg" p-id="5928" xmlns:xlink="http://www.w3.org/1999/xlink" width="200" height="200"><path d="M459.264 631.808c-11.264 0-22.528-4.608-30.208-12.8l-23.552-23.552c-33.792-33.792-52.736-79.36-52.736-127.488s18.944-92.672 52.736-127.488l190.464-190.464C629.76 116.224 675.328 97.28 723.456 97.28c48.128 0 92.672 18.944 127.488 52.736l23.552 23.552c33.792 33.792 52.736 79.36 52.736 127.488s-18.944 92.672-52.736 127.488L801.28 501.76c-8.192 8.192-18.944 12.8-30.208 12.8s-23.04-4.608-30.72-12.8c-16.384-17.408-16.384-44.544 0-61.44l73.216-73.216c17.92-17.92 27.136-40.96 27.136-65.536s-9.728-48.128-27.136-65.536l-23.552-23.552c-17.92-17.92-40.96-27.136-65.536-27.136s-48.128 9.728-65.536 27.136l-191.488 189.44c-17.92 17.92-27.136 40.96-27.136 65.536s9.728 48.128 27.136 65.536l23.552 23.552c17.408 17.408 17.408 44.544 0 61.44-7.68 7.68-18.432 12.288-29.184 12.8l-2.56 1.024z" fill="#2c2c2c" p-id="5929"></path><path d="M301.568 925.696c-48.128 0-92.672-18.944-127.488-52.736l-23.552-23.552c-33.792-33.792-52.736-79.36-52.736-127.488 0-48.128 18.944-92.672 52.736-127.488L234.496 512c8.192-8.192 19.456-12.8 30.208-12.8 11.264 0 23.04 4.608 30.72 12.8 8.192 8.192 12.8 19.456 12.8 30.72s-4.608 22.528-12.8 30.72l-82.944 82.944c-36.352 36.352-36.352 95.232 0 131.072l23.552 23.552c17.408 17.408 40.96 27.136 65.536 27.136h0.512c24.064 0 48.128-9.728 65.536-27.136l190.464-190.464c36.352-36.352 36.352-95.232 0-131.072l-23.552-23.552c-16.384-17.408-16.384-44.544 0-61.44 8.192-8.192 19.456-12.8 30.208-12.8 11.264 0 22.528 4.608 30.72 12.8l23.552 23.552c70.144 70.144 70.144 184.32 0 253.952l-190.464 190.464c-34.304 34.816-78.848 53.248-126.976 53.248zM927.232 800.256h-64v-64c0-17.92-14.336-31.744-31.744-31.744s-31.744 14.336-31.744 31.744v64h-64c-17.92 0-31.744 14.336-31.744 31.744s14.336 31.744 31.744 31.744h64v64c0 17.92 14.336 31.744 31.744 31.744s31.744-14.336 31.744-31.744v-64h64c17.92 0 31.744-14.336 31.744-31.744s-14.336-31.744-31.744-31.744z" fill="#2c2c2c" p-id="5930"></path></svg>