<?xml version="1.0" standalone="no"?><!DOCTYPE svg PUBLIC "-//W3C//DTD SVG 1.1//EN" "http://www.w3.org/Graphics/SVG/1.1/DTD/svg11.dtd"><svg t="1773209000076" class="icon" viewBox="0 0 1024 1024" version="1.1" xmlns="http://www.w3.org/2000/svg" p-id="8134" xmlns:xlink="http://www.w3.org/1999/xlink" width="200" height="200"><path d="M0 0m102.4 0l819.2 0q102.4 0 102.4 102.4l0 819.2q0 102.4-102.4 102.4l-819.2 0q-102.4 0-102.4-102.4l0-819.2q0-102.4 102.4-102.4Z" fill="#F53F3F" p-id="8135"></path><path d="M714.4448 350.6688c16.0256 0 38.1952-0.3584 39.2704-0.512a9.4208 9.4208 0 0 0 5.12-2.6624l42.752-42.752a9.3184 9.3184 0 0 0 2.6624-5.12 4.7616 4.7616 0 0 0-1.1264-4.3008l-49.92-49.8688a4.7616 4.7616 0 0 0-4.2496-1.1264 9.2672 9.2672 0 0 0-5.12 2.6624l-42.752 42.752a9.472 9.472 0 0 0-2.7136 5.12c0 1.1776 2.9696 26.624 2.9184 42.8032a292.864 292.864 0 0 0-135.7824-57.9584V219.2384h19.0464a28.8256 28.8256 0 0 0 9.216-3.9424c1.4848-1.024 6.144-4.7616 6.144-6.1952V138.496c0-1.4336-4.7104-2.816-6.0928-3.84a27.392 27.392 0 0 0-9.216-1.536h-140.8a28.8768 28.8768 0 0 0-9.5744 1.5872c-1.3824 1.024-6.4512 2.3552-6.4512 3.7888v70.5536c0 1.4336 5.12 5.12 6.4512 6.1952a31.7952 31.7952 0 0 0 9.5744 3.9424h18.6368v60.416a314.1632 314.1632 0 0 0-259.0208 303.7696 308.7872 308.7872 0 0 0 617.5744 0 305.7664 305.7664 0 0 0-106.3424-232.7552z m-49.5616 108.1344l-138.8544 138.8032a18.7904 18.7904 0 0 1-26.5728-26.5728l138.8544-138.8032a18.7904 18.7904 0 0 1 26.5728 26.5728z" fill="#FFFFFF" p-id="8136"></path></svg>