<?xml version="1.0" standalone="no"?><!DOCTYPE svg PUBLIC "-//W3C//DTD SVG 1.1//EN" "http://www.w3.org/Graphics/SVG/1.1/DTD/svg11.dtd"><svg t="1772695313963" class="icon" viewBox="0 0 1024 1024" version="1.1" xmlns="http://www.w3.org/2000/svg" p-id="3486" xmlns:xlink="http://www.w3.org/1999/xlink" width="200" height="200"><path d="M0 1024h1024V0H0z" fill="#202425" opacity=".01" p-id="3487"></path><path d="M102.4 273.334857a34.157714 34.157714 0 0 0 34.377143 33.645714h750.445714a34.157714 34.157714 0 0 0 34.377143-33.645714v-171.154286a68.388571 68.388571 0 0 0-68.022857-68.022857H170.422857a68.388571 68.388571 0 0 0-68.022857 68.022857z" fill="#FFAA44" p-id="3488"></path><path d="M490.788571 895.049143a60.489143 60.489143 0 0 1 42.422858 0l298.422857 98.742857a67.730286 67.730286 0 0 0 89.965714-64.365714v-724.845715a68.388571 68.388571 0 0 0-68.022857-68.022857H170.422857a68.388571 68.388571 0 0 0-68.022857 68.022857v724.845715a67.730286 67.730286 0 0 0 89.965714 64.365714z" fill="#FF7744" p-id="3489"></path><path d="M272.822857 750.957714h-33.645714a35.693714 35.693714 0 0 1-29.988572-16.822857 35.766857 35.766857 0 0 1 0-34.377143 35.693714 35.693714 0 0 1 29.988572-16.822857h33.645714a34.450286 34.450286 0 0 0 34.377143-34.377143v-272.822857a68.461714 68.461714 0 0 1 68.022857-68.754286h273.554286v-33.645714a34.011429 34.011429 0 1 1 68.022857 0v33.645714h34.377143a34.596571 34.596571 0 0 1 16.822857-29.257142 33.938286 33.938286 0 0 1 16.896-4.388572 37.302857 37.302857 0 0 1 17.481143 4.388572 34.669714 34.669714 0 0 1 16.822857 29.257142v34.377143a34.377143 34.377143 0 0 1-34.377143 34.377143H716.8v207.725714l34.377143-34.377142v-54.125715a33.718857 33.718857 0 0 1 16.822857-29.257143 31.085714 31.085714 0 0 1 16.896-4.900571 34.596571 34.596571 0 0 1 34.304 34.157714v68.022857a32.109714 32.109714 0 0 1-10.24 24.137143l-62.171429 62.829715 57.051429 38.765714a32.694857 32.694857 0 0 1 14.628571 20.992 34.084571 34.084571 0 0 1-5.046857 25.819428 32.914286 32.914286 0 0 1-28.16 15.433143 36.571429 36.571429 0 0 1-19.456-5.851428l-68.754285-46.08-41.764572 41.691428a33.499429 33.499429 0 0 1-47.542857 0 35.108571 35.108571 0 0 1-0.658286-48.274285l41.691429-40.96v-275.748572H375.222857v272.822857a102.4 102.4 0 0 1-102.4 102.4z m273.554286-68.534857h-68.754286a68.096 68.096 0 0 1-68.022857-68.022857v-34.377143A68.096 68.096 0 0 1 477.622857 512h68.754286a68.096 68.096 0 0 1 68.022857 68.022857v34.450286a68.096 68.096 0 0 1-68.022857 67.949714z m-68.534857-102.4v34.377143h68.022857v-34.377143z m-238.738286 68.534857a37.010286 37.010286 0 0 1-17.408-4.388571 34.596571 34.596571 0 0 1-16.822857-29.257143v-102.4a34.377143 34.377143 0 0 1 34.377143-34.377143 34.011429 34.011429 0 0 1 33.645714 34.377143v102.4a34.669714 34.669714 0 0 1-16.749714 29.257143 34.230857 34.230857 0 0 1-17.042286 4.388571zM580.022857 477.622857H443.977143a34.011429 34.011429 0 0 1-34.377143-33.865143 34.377143 34.377143 0 0 1 34.377143-34.377143h136.045714a34.011429 34.011429 0 0 1 29.988572 51.2 35.766857 35.766857 0 0 1-29.988572 17.042286z m-340.918857-33.865143A33.865143 33.865143 0 0 1 221.622857 438.857143a33.645714 33.645714 0 0 1-16.822857-29.257143v-68.242286a34.377143 34.377143 0 0 1 34.377143-34.157714 34.011429 34.011429 0 0 1 33.645714 34.377143v68.096a33.718857 33.718857 0 0 1-16.749714 29.257143 31.305143 31.305143 0 0 1-16.969143 4.827428z" fill="#FFFFFF" p-id="3490"></path></svg>